<svg xmlns="http://www.w3.org/2000/svg" xmlns:xlink="http://www.w3.org/1999/xlink" width="500" zoomAndPan="magnify" viewBox="0 0 375 374.999991" height="500" preserveAspectRatio="xMidYMid meet" version="1.0"><defs><g/></defs><g fill="#38837c" fill-opacity="1"><g transform="translate(128.501831, 200.999987)"><g><path d="M 21.359375 -28.203125 L 21.359375 -21.953125 L 10.078125 -21.953125 L 10.078125 -17 L 18.40625 -17 L 18.40625 -11.046875 L 10.078125 -11.046875 L 10.078125 0 L 2.234375 0 L 2.234375 -28.203125 Z M 21.359375 -28.203125 "/></g></g></g><g fill="#38837c" fill-opacity="1"><g transform="translate(150.939597, 200.999987)"><g><path d="M 10.078125 -28.203125 L 10.078125 0 L 2.234375 0 L 2.234375 -28.203125 Z M 10.078125 -28.203125 "/></g></g></g><g fill="#38837c" fill-opacity="1"><g transform="translate(163.258372, 200.999987)"><g><path d="M 28.359375 0 L 20.515625 0 L 10.078125 -15.765625 L 10.078125 0 L 2.234375 0 L 2.234375 -28.203125 L 10.078125 -28.203125 L 20.515625 -12.234375 L 20.515625 -28.203125 L 28.359375 -28.203125 Z M 28.359375 0 "/></g></g></g><g fill="#38837c" fill-opacity="1"><g transform="translate(193.855328, 200.999987)"><g><path d="M 23.484375 -28.203125 L 23.484375 -21.953125 L 15.953125 -21.953125 L 15.953125 0 L 8.125 0 L 8.125 -21.953125 L 0.6875 -21.953125 L 0.6875 -28.203125 Z M 23.484375 -28.203125 "/></g></g></g><g fill="#38837c" fill-opacity="1"><g transform="translate(218.012923, 200.999987)"><g><path d="M 9.921875 -28.203125 L 9.921875 -11.84375 C 9.921875 -10.320312 10.273438 -9.144531 10.984375 -8.3125 C 11.691406 -7.488281 12.765625 -7.078125 14.203125 -7.078125 C 15.640625 -7.078125 16.722656 -7.492188 17.453125 -8.328125 C 18.191406 -9.171875 18.5625 -10.34375 18.5625 -11.84375 L 18.5625 -28.203125 L 26.40625 -28.203125 L 26.40625 -11.84375 C 26.40625 -9.25 25.859375 -7.039062 24.765625 -5.21875 C 23.671875 -3.394531 22.179688 -2.019531 20.296875 -1.09375 C 18.421875 -0.175781 16.335938 0.28125 14.046875 0.28125 C 11.742188 0.28125 9.691406 -0.175781 7.890625 -1.09375 C 6.097656 -2.019531 4.6875 -3.390625 3.65625 -5.203125 C 2.632812 -7.015625 2.125 -9.226562 2.125 -11.84375 L 2.125 -28.203125 Z M 9.921875 -28.203125 "/></g></g></g></svg>